<svg id="wave" style="transform:rotate(0deg); transition: 0.3s"  viewBox="0 0 1440 490" version="1.1" xmlns="http://www.w3.org/2000/svg">
    <defs>
        <linearGradient id="sw-gradient-0" x1="0" x2="0" y1="1" y2="0">
            <stop stop-color="rgba(62, 243, 101.981, 1)" offset="0%"></stop>
            <stop stop-color="rgba(11, 213.673, 255, 1)" offset="100%"></stop>
        </linearGradient>
    </defs>
    <path style="transform:translate(0, 0px); opacity:1" fill="url(#sw-gradient-0)" d="M0,0L40,24.5C80,49,160,98,240,147C320,196,400,245,480,228.7C560,212,640,131,720,130.7C800,131,880,212,960,245C1040,278,1120,261,1200,261.3C1280,261,1360,278,1440,277.7C1520,278,1600,261,1680,236.8C1760,212,1840,180,1920,171.5C2000,163,2080,180,2160,196C2240,212,2320,229,2400,212.3C2480,196,2560,147,2640,138.8C2720,131,2800,163,2880,187.8C2960,212,3040,229,3120,236.8C3200,245,3280,245,3360,228.7C3440,212,3520,180,3600,171.5C3680,163,3760,180,3840,196C3920,212,4000,229,4080,253.2C4160,278,4240,310,4320,294C4400,278,4480,212,4560,212.3C4640,212,4720,278,4800,294C4880,310,4960,278,5040,269.5C5120,261,5200,278,5280,253.2C5360,229,5440,163,5520,138.8C5600,114,5680,131,5720,138.8L5760,147L5760,490L5720,490C5680,490,5600,490,5520,490C5440,490,5360,490,5280,490C5200,490,5120,490,5040,490C4960,490,4880,490,4800,490C4720,490,4640,490,4560,490C4480,490,4400,490,4320,490C4240,490,4160,490,4080,490C4000,490,3920,490,3840,490C3760,490,3680,490,3600,490C3520,490,3440,490,3360,490C3280,490,3200,490,3120,490C3040,490,2960,490,2880,490C2800,490,2720,490,2640,490C2560,490,2480,490,2400,490C2320,490,2240,490,2160,490C2080,490,2000,490,1920,490C1840,490,1760,490,1680,490C1600,490,1520,490,1440,490C1360,490,1280,490,1200,490C1120,490,1040,490,960,490C880,490,800,490,720,490C640,490,560,490,480,490C400,490,320,490,240,490C160,490,80,490,40,490L0,490Z"></path>
</svg>